<?xml version="1.0" encoding="utf-8"?>
<!-- Generator: Adobe Illustrator 16.0.0, SVG Export Plug-In . SVG Version: 6.00 Build 0)  -->
<!DOCTYPE svg PUBLIC "-//W3C//DTD SVG 1.1//EN" "http://www.w3.org/Graphics/SVG/1.1/DTD/svg11.dtd">
<svg version="1.1" id="Layer_1_copy" xmlns="http://www.w3.org/2000/svg" xmlns:xlink="http://www.w3.org/1999/xlink" x="0px"
	 y="0px" width="288px" height="288px" viewBox="0 0 288 288" enable-background="new 0 0 288 288" xml:space="preserve">
<g>
	<path fill="none" d="M134.48,72.703c-0.85-1.218-1.695-2.443-2.558-3.646c0.862,1.203,1.706,2.429,2.555,3.646L134.48,72.703z"/>
	<path fill="#89BBA6" d="M236.729,239.631l6.567-2.76c17.757-7.457,30.16-30.746,30.16-56.642c0-25.896-12.403-49.19-30.16-56.647
		l-6.567-2.757v-21.06l-13.572-2.524c6.605,8.254,9.26,19.225,9.612,26.176c0.442,8.686,0.573,23.494-10.639,26.94
		c-11.213,3.446-15.55-0.284-18.611-2.434c5.144,11.85,4.027,31.959,3.146,38.524c-1.186,8.811-7.502,21.115-9.159,30.267
		c-1.635,9.028-1.346,31.306,2.941,49.501l36.282-6.75V239.631z"/>
	<path fill="#89BBA6" d="M47.598,121.896l-5.683,3.024c-16.371,8.707-27.371,30.934-27.371,55.31c0,24.372,11,46.599,27.371,55.306
		l5.683,3.023v20.907l57.445,10.687c4.654-3.92,8.666-9.847,8.778-13.322c-2.981,1.557-6.229,2.39-9.274,1.937
		c-6.894-1.025-8.712-5.916-8.133-11.593c-2.418,1.525-4.847,3.028-7.22,4.59c-2.248,1.479-8.278,7.946-17.381,7.946
		c-11.725,0-18.288-14.274-14.614-16.913c2.639-1.995,3.137-2.419,4.232-3.834c-1.069-1.948-1.088-4.603,0.318-6.274
		c0.091-0.113,0.311-0.111,0.402,0c0.767,0.89,1.36,1.973,2.479,2.494c0.236,0.106,0.471,0.215,0.704,0.33
		c0.341-0.343,0.678-0.688,1.007-1.051c-1.792-2.563-2.873-5.809-1.03-8.614c0.125-0.193,0.363-0.168,0.491,0
		c1.257,1.603,3.03,2.636,4.667,3.827c0.333-0.376,0.658-0.759,0.998-1.128c-0.515-0.94-0.772-1.968-0.882-3.145
		c-0.158-1.708-0.343-3.657,0.421-5.256c0.074-0.157,0.334-0.184,0.447-0.059c0.738,0.829,1.021,1.987,1.804,2.757
		c0.624,0.62,1.359,1.079,2.099,1.541c0.636-0.707,1.26-1.424,1.861-2.167c-1.856-2.411-2.242-6.588-0.801-8.97
		c0.094-0.152,0.317-0.177,0.448-0.057c1.385,1.312,1.572,2.663,4.057,3.977c0.4-0.567,0.797-1.13,1.204-1.692
		c-1.626-2.719-2.902-6.482-0.347-8.533c0.108-0.091,0.297-0.125,0.401,0c0.658,0.78,0.981,2.294,3.448,4.129
		c0.447-0.527,0.896-1.046,1.348-1.564c-1.612-2.468-2.08-5.863-0.685-8.39c0.068-0.126,0.267-0.188,0.39-0.104
		c1.56,1.078,1.555,2.6,4.186,3.814c1.146-1.442,2.269-2.902,3.35-4.388c-1.236-2.2-2.063-4.982-1.393-7.212
		c0.226-0.749,0.391-0.691,1.171-0.417c1.277,0.447,1.49,1.197,3.906,1.571c0.363-0.574,5.076-8.753,5.107-8.852
		c0,0-6.828,1.987-9.44,3.821c-2.612,1.83-6.238,6.453-7.821,8.083c-1.582,1.625-6.252,4.46-7.67,5.295
		c-0.033,2.33-0.839,3.05-0.195,6.956c0.088,0.544-0.273,0.568-0.568,0.552c-1.392-0.082-4.778-0.715-6.616-3.425
		c-0.013,0.006-0.852,0.377-0.852,0.377c-0.895,3.456,0.512,5.381,0.512,7.503c0,0.696-0.804,0.916-1.401,0.771
		c-2.84-0.698-5.382-2.913-6.755-5.379c-0.018-0.033-1.642-0.021-2.45-0.044c-2.516,3.601-1.705,5.501-2.304,8.329
		c-0.134,0.644-1.104,1.082-1.672,0.658c-3.513-2.602-4.605-6.154-5.637-10.082c-0.366-0.026-0.73-0.044-1.095-0.063
		c-2.561,3.261-2.502,7.331-2.892,8.749c-0.19,0.694-1.039,1.016-1.673,0.659c-4.127-2.295-4.304-6.303-4.921-10.349
		c-0.19-0.033-2.918-0.802-2.94-0.811c-0.891,2.208-1.13,4.493-1.15,6.896c-0.01,1.036-1.201,1.369-1.946,0.781
		c-3.695-2.907-3.877-6.652-4.591-10.851c-0.326-0.125-0.539-0.188-0.992-0.384c-2.167-0.983-3.143-8.285-3.121-13.263
		c0.021-4.975-0.298-14.175,10.058-24.488c1.677-1.486,42.82-48.988,42.684-51.146c-0.102-1.628-1.468-5.085-0.205-6.812
		c1.265-1.726,17.125-11.699,20.411-14.159c0.481-0.362,1.02-0.431,1.509-0.326c0.241,0,8.688,1.976,14.406,3.797
		c-2.225-2.945-3.977-5.863-5.346-8.713L47.598,99.766V121.896z"/>
	<path fill="#89BBA6" d="M141.801,71.34l-2.058,0.384c0.375,0.462,0.738,0.906,1.086,1.316
		C141.152,72.492,141.476,71.924,141.801,71.34z"/>
	<path fill="#89BBA6" d="M247.445,113.703V90.86l-25.241-4.695c-1.824,1.878-3.437,3.723-4.752,5.5
		c1.36,1.014,2.614,2.135,3.766,3.339l17.356,3.229v21.365l5.437,2.283c18.423,7.737,31.292,31.731,31.292,58.349
		c0,26.615-12.869,50.607-31.289,58.346l-5.439,2.279v20.143l-96.41,17.938l-0.17-0.032l-96.242-17.905v-21.33l-4.703-2.5
		c-16.956-9.023-28.351-31.902-28.351-56.938c0-25.039,11.395-47.92,28.351-56.938l4.703-2.502V98.233l61.793-11.496
		c-1.266-2.948-2.115-5.81-2.624-8.535L36.882,90.86v24.6c-19.371,10.303-33.055,35.41-33.055,64.77
		c0,29.358,13.684,54.463,33.055,64.768v23.375l105.283,19.587l105.281-19.587v-21.618c21.292-8.943,36.728-35.343,36.728-66.524
		C284.173,149.043,268.737,122.645,247.445,113.703z"/>
	<path fill="#89BBA6" d="M139.378,79.067c-1.771-1.96-3.348-4.146-4.897-6.364l-0.003,0
		C136.027,74.922,137.606,77.106,139.378,79.067z"/>
	<path fill="#F3EAC2" d="M140.61,247.343c1.432,1.301,3.501,2.086,6.04,2.086c2.541,0,4.738-1.46,5.766-3.423
		C146.536,246.97,143.453,244.268,140.61,247.343z"/>
	<path fill="#F3EAC2" d="M160.459,136.134c-0.256,0.727,0.835,1.371,1.357,0.766c3.34-3.875,2.998-11.782,0.127-16.05
		c-0.346-0.5-1.229-0.946-2.069-0.799c-0.814,0.143-3.486,1.124-2.243,2.14C161.177,125.719,162.054,131.564,160.459,136.134z"/>
	<path fill="#F3EAC2" d="M152.488,232.774c-8.448,0.856-12.048,5.421-12.921,7.345c6.042-3.063,8.026-0.865,10.142-2.637
		C151.826,235.716,150.959,235.058,152.488,232.774z"/>
	<path fill="#F3EAC2" d="M107.492,254.355c2.146-0.427,4.307-3.774,8.303-4.807c-2.27-0.921-3.832-0.927-5.47-0.161
		c-2.217,1.033-4.896,2.976-7.398,1.811C104.231,253.777,105.345,254.781,107.492,254.355z"/>
	<path fill="#F3EAC2" d="M187.978,249.325c-1.526,2.424-4.513,3.882-6.748,5.62c-1.667,1.299-3.225,2.749-4.281,4.567
		c-1.146,1.976-1.223,3.881-0.436,6.541c0.533-3.135,2.414-5.114,5.286-6.485c2.412-1.15,5.026-1.839,7.285-3.287
		c4.776-3.085,6.332-10.32,2.355-14.588C190.865,243.763,189.438,247.007,187.978,249.325z"/>
	<path fill="#F3EAC2" d="M116.919,243.492c-0.247-3.512-7.078-4.165-8.622-4.604c-0.1,0.078-0.202,0.149-0.302,0.228
		c-0.002,0.002-0.003,0.004-0.005,0.004c-0.223,0.175-0.443,0.343-0.668,0.521c-0.923,0.742-1.874,1.454-2.834,2.153
		c0.341,0.28,1.964,1.618,4.05,1.618S113.458,242.396,116.919,243.492z"/>
	<path fill="#F3EAC2" d="M82.402,235.326c-0.946-1.374-3.631-5.246-4.168-4.368c-1.245,2.026-0.566,4.996-0.243,7.368
		C79.211,237.534,80.7,236.516,82.402,235.326z"/>
	<path fill="#F3EAC2" d="M99.125,223.141c0.492-0.368,0.987-0.74,1.484-1.11c-1.41-1.644-2.864-3.702-4.764-4.847
		c-1.567,2.906-1.717,5.984-1.477,9.206C95.909,225.265,97.486,224.183,99.125,223.141z"/>
	<path fill="#F3EAC2" d="M88.809,230.747c0.716-0.593,1.433-1.181,2.153-1.755c-1.454-2.147-2.968-4.192-5.017-5.787
		c-1.073,2.976-0.206,6.425-0.051,9.645C86.829,232.182,87.799,231.479,88.809,230.747z"/>
	<path fill="#F3EAC2" d="M151.314,141.691c3.567,0.393,6.492-4.029,6.763-7.738c0.271-3.71-1.83-10.244-5.624-10.538
		c-3.795-0.294-6.844,4.189-7.099,8.251S147.748,141.3,151.314,141.691z"/>
	<path fill="#F3EAC2" d="M185.28,230.076c-2.771,3.371-5.777,7.374-9.744,9.068c-1.204,0.513-2.835-0.164-2.997-1.67
		s-0.694-7.016,1.967-12.931c-5.407,3.437-12.256,14.831-5.304,24.356c0.875-1.626,1.761-2.372,2.704-3.571
		c1.134-1.435,3.611-0.42,3.718,0.975c0.105,1.392,0.269,2.438,0.622,3.609C181.188,246.863,187.335,237.021,185.28,230.076z"/>
	<path fill="#F3EAC2" d="M104.335,206.479c-0.104-0.061-0.187-0.104-0.257-0.143c-1.312,4.261-0.943,8.958-0.38,13.376
		c2.63-1.981,5.302-4.009,7.958-6.035c-1.206-1.219-2.284-2.541-3.463-3.796c-0.778-0.829-1.583-1.579-2.456-2.307
		C105.296,207.177,104.829,206.812,104.335,206.479z"/>
	<path fill="#F3EAC2" d="M125.805,193.67c-0.69-0.816-1.026-0.11-1.21,0.721c-0.186,0.829-0.33,4.704,1.369,8.238
		c1.818-1.421,3.554-2.79,5.188-4.088C129.172,197.044,126.494,194.488,125.805,193.67z"/>
	<path fill="#F3EAC2" d="M114.929,201.419c-0.131,1.408-0.273,5.683,0.534,9.344c2.445-1.874,4.848-3.731,7.159-5.529
		c-2.307-1.36-5.485-3.809-6.248-4.511C115.558,199.974,115.077,199.841,114.929,201.419z"/>
	<path fill="#F3EAC2" d="M132.663,188.246c-0.168-0.14-0.588,0.015-0.588,0.549c0,0.512,0.218,4.171,2.061,7.365
		c1.941-1.555,3.671-2.964,5.134-4.177C136.791,190.974,132.829,188.386,132.663,188.246z"/>
	<path fill="#F3EAC2" d="M114.419,182.427c0.834,2.574,4.097,5.661,6.452,6.498c0.175,0.063,0.359-0.098,0.361-0.267
		c0.013-2.171-0.22-5.767-0.007-8.006L114.419,182.427z"/>
	<path fill="#F3EAC2" d="M105.95,184.632c1.087,2.667,3.172,5.923,5.381,6.408c0.192,0.041,0.396,0.043,0.36-0.266
		c-0.385-3.316-0.5-5.699-0.415-7.528L105.95,184.632z"/>
	<path fill="#F3EAC2" d="M198.378,181.886c2.176-2.621,1.109-11.328,0.888-14.096c-0.051-0.605-0.651-0.967-1.224-0.681
		c-5.012,2.516-6.925,8.263-9.693,12.872c-0.532-6.46,0.645-17.961,4.503-23.334c-0.194,3.234,0.149,4.829,0.85,7.218
		c0.189,0.663,1.002,0.907,1.365,0.321c2.636-4.262,2.172-14.255-3.234-15.045c-5.403-0.785-6.477-6.673-6.265-11.305
		c1.585,2.514,3.373,5.904,6.132,6.264c1.206,0.157,2.275-0.938,2.29-2.084c0.03-2.245-9.069-29.909-14.645-34.175
		c-5.58-4.268-12.873-5.197-19.831-4.655c-7.573-0.547-14.63,1.798-22.186,2.122c-4.803,0.207-36.523-7.985-38.09-8.541
		c-2.879,2.213-17.691,11.044-18.589,12.771c-0.898,1.727,0.712,4.642,0.027,6.957c-0.702,2.372-42.534,50.732-44.089,52.324
		c-2.521,2.588-6.612,10.169-6.864,10.965c0.033,0.045,1.664,2.272,2.5,3.305c0.068,0.526,0.144,2.47,0.252,3.821
		c-0.771-0.436-2.449-1.579-3.757-2.633c-1.166,7.88,0.581,14.37,1.203,15.449c0.623,1.081,1.871,1.768,2.705,2.125
		c2.446,1.031,21.526,4.443,23.619,4.793c2.929,0.491,6.504,1.073,9.281-0.339c1.779-0.904,9.322-5.326,11.38-6.638
		c2.091-1.33,4.048-2.837,5.834-4.536c2.533-2.411,4.612-5.17,7.323-7.349c0.036-0.037,0.064-0.078,0.106-0.11
		c4.992-4.232,12.601-5.559,18.773-7.454c3.747-1.15,7.5-1.472,11.353-2.088c1.273-0.2,2.949-0.376,4.447-0.814
		c2.374-0.09,14.892-2.108,18.181-1.714c5.179,0.625,10.505,1.126,15.711,0.5c4.369-0.53,10.938-2.919,14.631-7.053
		c3.693-4.136,2.83-10.627,2.188-13.678l1.7-2.544c1.126,2.79,2.835,12.938-1.115,18.2c-3.95,5.259-10.075,7.093-13.872,8.169
		c-3.372,0.956-6.674,4.496-9.415,6.619c-1.536,1.189-28.681,24.458-35.827,29.591c-10.127,7.275-33.097,25.894-41.509,28.487
		c-8.414,2.595-13.36,2.917-15.978,0.97c0.079,4.21,4.086,10.005,8.198,11.106c3.2,0.855,7.384,1.147,10.261-0.899
		c1.057-0.459,41.354-27.771,44.743-29.121c5.015-1.997,11.061-0.96,16.354-1.429c4.376-0.394,11.581-2.641,15.388-5.691
		c3.805-3.047,21.611-25.032,25.14-36.766c1.101,7.937,0.985,17.868-0.615,25.783c2.889-4.679,6.294-9.826,10.959-10.84
		c-3.184,5.277-5.18,16.689-1.143,25.267c2.81-17.349,7.491-28.584,9.827-34.452c-2.067,1.318-7.055,3.367-10.355,2.224
		C192.246,188.306,196.203,184.505,198.378,181.886z M138.341,109.625c-4.799,2.501-9.22,3.642-15.972,4.279
		c-6.751,0.636-14.218-2.776-19.921-10.858C116.567,110.915,126.554,110.843,138.341,109.625z M36.858,195.671
		c-0.491,0.453-1.505,1.231-2.059,1.615c-3.476-4.053,1.475-17.385,2.018-18.492c0.497-0.084,1.03,0.082,1.433,0.409
		C38.293,180.495,34.907,191.577,36.858,195.671z M52.434,183.214c-3.22,1.157-6.616,1.851-10.059,2.227
		c2.593-2.448,7.109-5.304,9.693-6.087C52.511,180.049,52.712,181.904,52.434,183.214z M45.89,171.031
		c-0.514,0.334-1.18-0.21-0.925-0.676c0.256-0.462,58.764-52.897,60.471-53.125c1.707-0.229,0.405,4.909-1.378,7.122
		C102.271,126.566,46.401,170.694,45.89,171.031z M82.183,185.6c-6.931-7.168-7.361-14.879-5.153-19.392
		c2.208-4.513,3.389-3.104,2.659,0.541c-0.73,3.643-1.064,10.444,5.277,17.885C87.305,187.593,83.793,187.193,82.183,185.6z
		 M116.698,171.729c-0.846,1.369-2.448,1.699-1.956-0.21c0.494-1.908,3.394-17.165-5.51-26.112c-1.818-1.984,0.13-3.463,4.287-1.545
		C117.677,145.779,122.236,162.717,116.698,171.729z M129.041,127.498c-0.229,0.566-0.561,1.034-1.025,1.307
		c-2.177,1.282-44.321,26.891-45.543,27.323c-1.221,0.437-0.997-0.686-0.25-1.39c0.748-0.704,43.536-30.445,45.118-30.73
		s1.838,0.545,1.825,1.075C129.138,126.095,129.09,126.488,129.041,127.498z M171.146,114.05c1.805,1.054,0.759,4.903-1.992,3.588
		c-12.303-6.188-24.555-4.781-35.507,11.872C137.894,108.204,153.8,104.495,171.146,114.05z M141.222,132.864
		c0-11.233,10.913-14.73,17.851-14.73c1.62,0,3.44,0.02,4.959,1.815c1.519,1.797,4.525,9.332,0.977,16.376
		c-3.547,7.042-8.095,9.396-12.125,9.732c-4.028,0.339-7.773-0.941-9.949-3.225l2.674-0.767
		C142.607,138.723,141.222,136.449,141.222,132.864z M161.335,157.258c-0.207-2.013-0.224-4.84-1.042-5.748
		c-9.297,4.521-16.182,1.811-21.122-2.249l3.15-1.218c11.193,9.6,31.084-8.333,33.417-10.268l2.159,1.189
		c0.015,0.012,0.027,0.021,0.042,0.037C171.547,144.003,165.232,150.09,161.335,157.258z M124.609,221.792
		c-4.132,0.754-7.959,3.955-11.646,5.449c1.09-4.983,5.227-7.768,10.398-9.266c5.171-1.499,18.135,0.643,28.353-4.064
		C147.646,223.485,128.741,221.04,124.609,221.792z"/>
	<path fill="#7D6F5B" d="M122.369,113.905c6.752-0.637,11.173-1.778,15.972-4.279c-11.787,1.218-21.774,1.289-35.893-6.579
		C108.151,111.128,115.618,114.541,122.369,113.905z"/>
	<path fill="#7D6F5B" d="M169.153,117.638c2.751,1.315,3.797-2.534,1.992-3.588c-17.346-9.555-33.251-5.846-37.499,15.46
		C144.598,112.857,156.851,111.451,169.153,117.638z"/>
	<path fill="#822C2C" d="M104.547,258.767c3.046,0.453,6.293-0.38,9.274-1.937c1.693-0.88,3.302-1.996,4.738-3.242
		c0.296,0.217,0.622,0.392,0.938,0.578c1.73,1.03,3.73,1.682,5.861,1.913c3.519,0.378,6.7-0.507,9.375-2.299
		c0.949,1.136,2.088,1.956,3.657,2.595c0.392,0.215,0.802,0.397,1.213,0.577c3.671,1.599,7.997,1.861,11.548,0.457
		c7.163-2.835,8.357-13.033,8.281-19.537c-0.067-5.821-1.914-12.047-8.715-11.609c-5.646,0.363-13.546,5.767-15.925,11.451
		c-0.121,0.128-0.247,0.255-0.362,0.384c-3.786-2.689-10.128-1.259-13.865,1.238c-0.499,0.331-0.93,0.747-1.314,1.196
		c-1.299-1.929-3.246-3.667-5.403-5.077c-0.914,0.477-3.168,1.548-3.545,1.932c-0.674,0.474-1.337,0.983-2.004,1.502
		c1.543,0.438,8.375,1.092,8.622,4.604c-3.461-1.096-6.296-0.08-8.382-0.08s-3.709-1.338-4.05-1.618
		c-2.61,1.892-5.33,3.654-8.073,5.38C95.835,252.851,97.653,257.741,104.547,258.767z M146.65,249.429
		c-2.539,0-4.608-0.785-6.04-2.086c2.843-3.075,5.926-0.373,11.806-1.337C151.389,247.969,149.191,249.429,146.65,249.429z
		 M152.488,232.774c-1.529,2.283-0.662,2.941-2.779,4.708c-2.115,1.771-4.1-0.427-10.142,2.637
		C140.44,238.195,144.04,233.631,152.488,232.774z M110.325,249.388c1.639-0.766,3.201-0.76,5.47,0.161
		c-3.996,1.032-6.157,4.38-8.303,4.807c-2.147,0.426-3.261-0.578-4.565-3.157C105.429,252.363,108.107,250.421,110.325,249.388z"/>
	<path fill="#7D6F5B" d="M112.963,227.241c3.687-1.494,7.514-4.695,11.646-5.449c4.132-0.752,23.038,1.693,27.105-7.881
		c-10.218,4.707-23.182,2.565-28.353,4.064C118.189,219.474,114.053,222.258,112.963,227.241z"/>
	<path fill="#7D6F5B" d="M36.817,178.794c-0.543,1.107-5.493,14.439-2.018,18.492c0.554-0.384,1.568-1.162,2.059-1.615
		c-1.951-4.094,1.436-15.176,1.392-16.468C37.847,178.876,37.314,178.71,36.817,178.794z"/>
	<path fill="#F3EAC2" d="M244.011,121.881l-5.437-2.283V98.233l-17.356-3.229c0.686,0.716,1.324,1.468,1.939,2.237l13.572,2.524
		v21.06l6.567,2.757c17.757,7.458,30.16,30.751,30.16,56.647c0,25.896-12.403,49.185-30.16,56.642l-6.567,2.76v19.835l-36.282,6.75
		l-31.247,5.811c-0.353-3.476-2.541-12.352-4.453-13.521c-0.758-0.676-1.7-0.912-2.886-0.479
		c-4.432,1.615-19.177,15.513-26.714,15.271c5.397-5.891,5.041-12.454,4.456-16.345c-0.412-0.18-0.821-0.362-1.213-0.577
		c-1.568-0.639-2.708-1.459-3.657-2.595c-2.674,1.792-5.856,2.677-9.375,2.299c-2.131-0.231-4.131-0.883-5.861-1.913
		c-1.324,6.457-4.771,12.785-8.712,17.054l-5.741-1.067l-57.445-10.687v-20.907l-5.683-3.023
		c-16.371-8.707-27.371-30.934-27.371-55.306c0-24.376,11-46.603,27.371-55.31l5.683-3.024v-22.13l60.735-11.298
		c-0.278-0.579-0.54-1.156-0.787-1.73L45.753,98.233v22.556l-4.703,2.502c-16.956,9.018-28.351,31.899-28.351,56.938
		c0,25.035,11.395,47.914,28.351,56.938l4.703,2.5v21.33l96.242,17.905l0.17,0.032l96.41-17.938v-20.143l5.439-2.279
		c18.42-7.738,31.289-31.73,31.289-58.346C275.303,153.612,262.434,129.618,244.011,121.881z"/>
	<path fill="#F3EAC2" d="M213.285,97.173c-1.121-0.813-2.224-1.617-3.374-2.396c-1.427-0.968-2.929-1.894-4.63-2.738
		c-0.288-0.144-0.585-0.284-0.887-0.423c-0.065-0.03-0.132-0.061-0.202-0.091c-0.243-0.109-0.489-0.218-0.74-0.325
		c-0.078-0.034-0.156-0.066-0.234-0.098c-0.267-0.11-0.538-0.219-0.813-0.325c-0.06-0.022-0.115-0.045-0.175-0.067
		c-0.694-0.263-1.423-0.512-2.19-0.747c-0.022-0.007-0.045-0.014-0.067-0.02c-0.357-0.109-0.723-0.213-1.097-0.315
		c-0.058-0.016-0.113-0.03-0.17-0.045c-0.362-0.096-0.734-0.19-1.114-0.281c-0.042-0.01-0.085-0.021-0.128-0.031
		c-1.309-0.307-2.721-0.575-4.26-0.797c-0.002,0-0.006-0.001-0.008-0.001c-0.51-0.074-1.031-0.142-1.57-0.206
		c-0.017-0.001-0.032-0.004-0.048-0.006c-2.737-0.32-5.845-0.505-9.418-0.524c-0.203-0.001-0.396-0.005-0.602-0.005
		c-3.485,0-6.628,0.009-9.487,0.004c-0.323,0-0.628-0.002-0.943-0.003c-0.567-0.002-1.13-0.004-1.673-0.007
		c-0.34-0.002-0.67-0.006-1.001-0.009c-0.493-0.004-0.979-0.009-1.453-0.016c-0.331-0.004-0.661-0.009-0.983-0.014
		c-0.479-0.008-0.946-0.018-1.406-0.029c-0.28-0.006-0.567-0.013-0.84-0.021c-0.59-0.016-1.161-0.036-1.719-0.058
		c-0.142-0.006-0.289-0.01-0.429-0.016c-0.641-0.028-1.261-0.061-1.864-0.098c-0.226-0.014-0.441-0.031-0.66-0.045
		c-0.404-0.028-0.804-0.058-1.19-0.09c-0.234-0.02-0.466-0.042-0.696-0.063c-0.366-0.036-0.724-0.073-1.073-0.113
		c-0.216-0.025-0.435-0.049-0.644-0.076c-0.384-0.049-0.758-0.103-1.129-0.159c-0.156-0.024-0.318-0.045-0.475-0.071
		c-0.509-0.083-1.002-0.174-1.481-0.274c-0.129-0.026-0.257-0.058-0.384-0.086c-0.354-0.078-0.705-0.16-1.047-0.248
		c-0.168-0.044-0.335-0.09-0.501-0.136c-0.296-0.083-0.588-0.169-0.877-0.26c-0.165-0.051-0.329-0.105-0.491-0.159
		c-0.296-0.101-0.588-0.208-0.876-0.318c-0.137-0.052-0.275-0.103-0.41-0.157c-0.418-0.169-0.826-0.346-1.229-0.538
		c-0.678-0.324-1.319-0.686-1.939-1.074c-0.02-0.012-0.041-0.023-0.061-0.036c-0.625-0.395-1.223-0.819-1.798-1.271
		c-0.695-0.545-1.359-1.126-1.994-1.742c-0.458-0.444-0.9-0.906-1.332-1.38c-0.032-0.034-0.063-0.069-0.095-0.103
		c-1.771-1.961-3.351-4.145-4.9-6.364c-0.849-1.218-1.693-2.443-2.555-3.646c-0.219-0.305-0.438-0.607-0.66-0.909
		c-0.125-0.17-0.249-0.339-0.375-0.508c-0.309-0.415-0.625-0.823-0.943-1.227c-0.109-0.138-0.219-0.275-0.33-0.413
		c-0.348-0.432-0.702-0.857-1.064-1.273c-0.079-0.091-0.161-0.179-0.24-0.269c-0.336-0.378-0.68-0.749-1.032-1.11
		c-0.076-0.079-0.15-0.158-0.228-0.235c-0.397-0.401-0.809-0.787-1.23-1.161c-0.099-0.088-0.201-0.175-0.301-0.262
		c-0.438-0.376-0.884-0.742-1.35-1.085c-0.051-0.038-0.105-0.073-0.156-0.11c-0.441-0.319-0.897-0.621-1.366-0.908
		c-0.095-0.059-0.189-0.12-0.285-0.177c-0.502-0.295-1.022-0.57-1.559-0.826c-0.111-0.053-0.224-0.102-0.337-0.152
		c-0.566-0.256-1.145-0.497-1.754-0.703c-4.953-1.681-9.706,2.542-10.112,7.272c-0.087,1.01,1.631-0.042,1.634-0.063
		c4.439-5.419,9.71-1.219,13.418,2.726c3.652,3.883,5.96,8.99,9.547,12.936c0.365,0.402,0.741,0.778,1.115,1.158
		c0.537,0.546,1.084,1.069,1.641,1.571c0.49,0.443,0.989,0.866,1.496,1.276c0.03,0.025,0.061,0.049,0.091,0.073
		c0.494,0.397,0.997,0.78,1.506,1.147c0.039,0.027,0.078,0.055,0.115,0.083c0.514,0.366,1.035,0.719,1.564,1.057
		c0.025,0.016,0.051,0.031,0.076,0.047c2.779,1.762,5.789,3.136,9.08,4.191c0.009,0.002,0.017,0.006,0.027,0.009
		c0.531,0.171,1.078,0.327,1.626,0.482c0.181,0.051,0.358,0.105,0.541,0.153c0.481,0.131,0.976,0.252,1.47,0.37
		c0.262,0.063,0.522,0.126,0.785,0.185c0.457,0.103,0.92,0.199,1.385,0.293c0.32,0.063,0.645,0.126,0.97,0.186
		c0.434,0.08,0.875,0.158,1.319,0.231c0.377,0.062,0.757,0.12,1.141,0.176c0.414,0.061,0.833,0.122,1.257,0.178
		c0.441,0.059,0.89,0.11,1.34,0.162c0.386,0.044,0.768,0.09,1.157,0.13c0.542,0.055,1.096,0.103,1.649,0.151
		c0.319,0.026,0.632,0.058,0.953,0.083c0.889,0.067,1.79,0.126,2.711,0.176c15.541,0.836,25.858-3.51,41.293,8.062
		c15.435,11.57,11.454,31.939,11.104,39.263c-0.111,1.056,0.532,1.447,1.223,0.681C233.909,124.538,219.931,101.998,213.285,97.173z
		"/>
	<path fill="#7D6F5B" d="M118.559,253.588c-1.436,1.246-3.045,2.362-4.738,3.242c-0.112,3.476-4.124,9.402-8.778,13.322l5.741,1.067
		c3.941-4.269,7.388-10.597,8.712-17.054C119.181,253.979,118.855,253.805,118.559,253.588z"/>
	<path fill="#7D6F5B" d="M108.333,88.467c1.369,2.85,3.121,5.768,5.346,8.713c-5.718-1.822-14.165-3.797-14.406-3.797
		c-0.489-0.105-1.028-0.036-1.509,0.326c-3.286,2.46-19.146,12.433-20.411,14.159c-1.264,1.727,0.103,5.184,0.205,6.812
		c0.136,2.158-41.007,49.66-42.684,51.146c-10.356,10.313-10.036,19.514-10.058,24.488c-0.021,4.978,0.954,12.279,3.121,13.263
		c0.453,0.195,0.666,0.259,0.992,0.384c0.714,4.198,0.896,7.943,4.591,10.851c0.745,0.588,1.937,0.255,1.946-0.781
		c0.021-2.403,0.259-4.688,1.15-6.896c0.022,0.009,2.75,0.777,2.94,0.811c0.617,4.046,0.794,8.054,4.921,10.349
		c0.635,0.356,1.483,0.035,1.673-0.659c0.389-1.418,0.331-5.488,2.892-8.749c0.365,0.019,0.729,0.036,1.095,0.063
		c1.032,3.928,2.124,7.48,5.637,10.082c0.569,0.424,1.538-0.015,1.672-0.658c0.599-2.828-0.212-4.729,2.304-8.329
		c0.808,0.023,2.432,0.011,2.45,0.044c1.373,2.466,3.915,4.681,6.755,5.379c0.597,0.146,1.401-0.074,1.401-0.771
		c0-2.122-1.407-4.047-0.512-7.503c0,0,0.839-0.371,0.852-0.377c1.838,2.71,5.225,3.343,6.616,3.425
		c0.295,0.017,0.656-0.008,0.568-0.552c-0.644-3.906,0.162-4.626,0.195-6.956c1.418-0.835,6.088-3.67,7.67-5.295
		c1.583-1.63,5.209-6.253,7.821-8.083c2.612-1.834,9.44-3.821,9.44-3.821c-0.031,0.099-4.744,8.277-5.107,8.852
		c-2.417-0.374-2.629-1.124-3.906-1.571c-0.78-0.274-0.945-0.332-1.171,0.417c-0.67,2.229,0.156,5.012,1.393,7.212
		c-1.081,1.485-2.204,2.945-3.35,4.388c-2.63-1.215-2.625-2.736-4.186-3.814c-0.123-0.084-0.322-0.022-0.39,0.104
		c-1.395,2.526-0.927,5.922,0.685,8.39c-0.452,0.519-0.901,1.037-1.348,1.564c-2.466-1.835-2.79-3.349-3.448-4.129
		c-0.104-0.125-0.292-0.091-0.401,0c-2.556,2.051-1.28,5.814,0.347,8.533c-0.406,0.563-0.804,1.125-1.204,1.692
		c-2.484-1.313-2.672-2.665-4.057-3.977c-0.13-0.12-0.354-0.096-0.448,0.057c-1.441,2.382-1.056,6.559,0.801,8.97
		c-0.601,0.743-1.225,1.46-1.861,2.167c-0.74-0.462-1.475-0.921-2.099-1.541c-0.784-0.77-1.066-1.928-1.804-2.757
		c-0.112-0.125-0.373-0.099-0.447,0.059c-0.764,1.599-0.579,3.548-0.421,5.256c0.109,1.177,0.367,2.204,0.882,3.145
		c-0.34,0.369-0.665,0.752-0.998,1.128c-1.637-1.191-3.41-2.225-4.667-3.827c-0.128-0.168-0.366-0.193-0.491,0
		c-1.843,2.806-0.762,6.051,1.03,8.614c-0.329,0.362-0.667,0.708-1.007,1.051c-0.233-0.115-0.468-0.224-0.704-0.33
		c-1.119-0.521-1.712-1.604-2.479-2.494c-0.091-0.111-0.311-0.113-0.402,0c-1.406,1.672-1.387,4.326-0.318,6.274
		c-1.095,1.415-1.593,1.839-4.232,3.834c-3.674,2.639,2.89,16.913,14.614,16.913c9.103,0,15.133-6.467,17.381-7.946
		c2.373-1.562,4.802-3.064,7.22-4.59c2.743-1.726,5.463-3.488,8.073-5.38c0.96-0.699,1.911-1.411,2.834-2.153
		c0.225-0.178,0.446-0.346,0.668-0.521c0.002,0,0.003-0.002,0.005-0.004c0.101-0.078,0.202-0.149,0.302-0.228
		c0.667-0.519,1.33-1.028,2.004-1.502c0.377-0.384,2.631-1.455,3.545-1.932c2.157,1.41,4.104,3.148,5.403,5.077
		c0.384-0.449,0.815-0.865,1.314-1.196c3.737-2.497,10.08-3.928,13.865-1.238c0.115-0.129,0.242-0.256,0.362-0.384
		c2.379-5.685,10.279-11.088,15.925-11.451c6.801-0.438,8.647,5.788,8.715,11.609c0.076,6.504-1.118,16.702-8.281,19.537
		c-3.551,1.404-7.877,1.142-11.548-0.457c0.585,3.891,0.941,10.454-4.456,16.345c7.537,0.242,22.283-13.655,26.714-15.271
		c1.186-0.433,2.128-0.196,2.886,0.479c1.912,1.169,4.101,10.045,4.453,13.521l31.247-5.811
		c-4.287-18.195-4.576-40.473-2.941-49.501c1.657-9.151,7.974-21.456,9.159-30.267c0.882-6.565,1.998-26.675-3.146-38.524
		c3.062,2.149,7.398,5.88,18.611,2.434c11.212-3.446,11.081-18.254,10.639-26.94c-0.353-6.951-3.007-17.922-9.612-26.176
		c-0.615-0.769-1.254-1.521-1.939-2.237c-1.151-1.204-2.405-2.326-3.766-3.339c1.315-1.777,2.928-3.622,4.752-5.5
		c12.782-13.157,36.007-27.929,41.714-32.546C239.93,8.861,173.031-8.914,163.729,4.663c-1.819,17.656-12.322,49.439-21.929,66.677
		c-0.325,0.583-0.648,1.151-0.971,1.7c-0.348-0.411-0.712-0.854-1.086-1.316c-6.526-8.058-16.936-23.205-28.171-17.244
		c-4.555,2.464-8.875,11.784-6.649,23.722c0.509,2.725,1.357,5.587,2.624,8.535C107.793,87.312,108.055,87.888,108.333,88.467z
		 M95.846,217.184c1.9,1.145,3.354,3.203,4.764,4.847c-0.497,0.37-0.992,0.742-1.484,1.11c-1.639,1.042-3.217,2.124-4.756,3.249
		C94.129,223.168,94.279,220.09,95.846,217.184z M85.945,223.205c2.049,1.595,3.563,3.64,5.017,5.787
		c-0.72,0.574-1.438,1.162-2.153,1.755c-1.01,0.732-1.98,1.435-2.915,2.103C85.739,229.63,84.872,226.181,85.945,223.205z
		 M78.234,230.958c0.537-0.878,3.222,2.994,4.168,4.368c-1.703,1.189-3.191,2.208-4.411,3
		C77.668,235.954,76.99,232.984,78.234,230.958z M171.906,245.329c-0.943,1.199-1.829,1.945-2.704,3.571
		c-6.952-9.525-0.104-20.92,5.304-24.356c-2.661,5.915-2.129,11.425-1.967,12.931s1.793,2.183,2.997,1.67
		c3.967-1.694,6.973-5.697,9.744-9.068c2.055,6.945-4.092,16.787-9.034,19.837c-0.354-1.171-0.517-2.218-0.622-3.609
		C175.518,244.909,173.04,243.895,171.906,245.329z M189.084,256.281c-2.259,1.448-4.873,2.137-7.285,3.287
		c-2.872,1.371-4.753,3.351-5.286,6.485c-0.787-2.66-0.711-4.565,0.436-6.541c1.057-1.818,2.614-3.269,4.281-4.567
		c2.235-1.738,5.222-3.196,6.748-5.62c1.461-2.318,2.888-5.563,3.462-7.632C195.416,245.961,193.86,253.196,189.084,256.281z
		 M198.55,187.822c-2.336,5.868-7.018,17.104-9.827,34.452c-4.037-8.577-2.041-19.989,1.143-25.267
		c-4.665,1.014-8.07,6.161-10.959,10.84c1.601-7.915,1.716-17.847,0.615-25.783c-3.528,11.733-21.335,33.719-25.14,36.766
		c-3.807,3.051-11.011,5.298-15.388,5.691c-5.292,0.469-11.339-0.568-16.354,1.429c-3.389,1.351-43.687,28.662-44.743,29.121
		c-2.877,2.047-7.061,1.755-10.261,0.899c-4.112-1.102-8.12-6.896-8.198-11.106c2.618,1.947,7.564,1.625,15.978-0.97
		c8.412-2.594,31.382-21.212,41.509-28.487c7.146-5.133,34.291-28.401,35.827-29.591c2.741-2.123,6.043-5.663,9.415-6.619
		c3.797-1.076,9.922-2.91,13.872-8.169c3.95-5.262,2.241-15.41,1.115-18.2l-1.7,2.544c0.642,3.051,1.505,9.542-2.188,13.678
		c-3.692,4.134-10.262,6.522-14.631,7.053c-5.206,0.626-10.532,0.125-15.711-0.5c-3.29-0.395-15.807,1.624-18.181,1.714
		c-1.499,0.438-3.174,0.614-4.447,0.814c-3.853,0.616-7.605,0.938-11.353,2.088c-6.172,1.896-13.781,3.222-18.773,7.454
		c-0.042,0.032-0.07,0.073-0.106,0.11c-2.711,2.179-4.79,4.938-7.323,7.349c-1.787,1.699-3.744,3.206-5.834,4.536
		c-2.058,1.312-9.601,5.733-11.38,6.638c-2.777,1.412-6.353,0.83-9.281,0.339c-2.093-0.35-21.173-3.762-23.619-4.793
		c-0.834-0.357-2.083-1.044-2.705-2.125c-0.623-1.079-2.369-7.569-1.203-15.449c1.308,1.054,2.986,2.197,3.757,2.633
		c-0.108-1.352-0.185-3.295-0.252-3.821c-0.836-1.032-2.467-3.26-2.5-3.305c0.252-0.796,4.343-8.377,6.864-10.965
		c1.555-1.592,43.387-49.952,44.089-52.324c0.685-2.315-0.925-5.23-0.027-6.957c0.898-1.727,15.71-10.558,18.589-12.771
		c1.567,0.556,33.288,8.748,38.09,8.541c7.556-0.324,14.613-2.669,22.186-2.122c6.958-0.542,14.251,0.388,19.831,4.655
		c5.575,4.266,14.675,31.93,14.645,34.175c-0.015,1.146-1.084,2.241-2.29,2.084c-2.759-0.36-4.547-3.75-6.132-6.264
		c-0.212,4.632,0.861,10.52,6.265,11.305c5.406,0.79,5.87,10.783,3.234,15.045c-0.363,0.586-1.176,0.342-1.365-0.321
		c-0.7-2.389-1.044-3.983-0.85-7.218c-3.858,5.373-5.035,16.874-4.503,23.334c2.769-4.609,4.682-10.356,9.693-12.872
		c0.572-0.286,1.173,0.075,1.224,0.681c0.222,2.768,1.288,11.475-0.888,14.096c-2.175,2.619-6.132,6.42-10.184,8.16
		C191.495,191.189,196.482,189.141,198.55,187.822z M111.691,190.774c0.036,0.309-0.168,0.307-0.36,0.266
		c-2.208-0.485-4.293-3.741-5.381-6.408l5.326-1.386C111.191,185.075,111.307,187.458,111.691,190.774z M108.192,209.881
		c1.18,1.255,2.258,2.577,3.463,3.796c-2.656,2.026-5.328,4.054-7.958,6.035c-0.563-4.418-0.932-9.115,0.38-13.376
		c0.071,0.039,0.153,0.082,0.257,0.143c0.494,0.333,0.961,0.698,1.401,1.096C106.608,208.302,107.414,209.052,108.192,209.881z
		 M121.232,188.658c-0.001,0.169-0.186,0.33-0.361,0.267c-2.355-0.837-5.618-3.924-6.452-6.498l6.806-1.774
		C121.013,182.892,121.245,186.487,121.232,188.658z M122.623,205.233c-2.312,1.798-4.714,3.655-7.159,5.529
		c-0.807-3.661-0.665-7.936-0.534-9.344c0.147-1.578,0.629-1.445,1.445-0.696C117.138,201.425,120.315,203.873,122.623,205.233z
		 M124.595,194.391c0.184-0.831,0.521-1.537,1.21-0.721c0.688,0.818,3.367,3.374,5.346,4.871c-1.634,1.298-3.37,2.667-5.188,4.088
		C124.265,199.095,124.409,195.22,124.595,194.391z M132.075,188.795c0-0.534,0.42-0.688,0.588-0.549
		c0.166,0.14,4.128,2.728,6.607,3.737c-1.463,1.213-3.193,2.622-5.134,4.177C132.293,192.966,132.075,189.307,132.075,188.795z
		 M118.712,57.729c0.609,0.207,1.188,0.447,1.754,0.703c0.113,0.051,0.226,0.1,0.337,0.152c0.537,0.256,1.056,0.531,1.559,0.826
		c0.096,0.057,0.19,0.118,0.285,0.177c0.469,0.287,0.924,0.588,1.366,0.908c0.05,0.037,0.104,0.072,0.156,0.11
		c0.466,0.344,0.913,0.709,1.35,1.085c0.101,0.087,0.202,0.174,0.301,0.262c0.421,0.375,0.833,0.76,1.23,1.161
		c0.078,0.077,0.152,0.157,0.228,0.235c0.353,0.361,0.696,0.732,1.032,1.11c0.08,0.09,0.162,0.177,0.24,0.269
		c0.363,0.416,0.717,0.841,1.064,1.273c0.11,0.137,0.22,0.274,0.33,0.413c0.318,0.404,0.634,0.813,0.943,1.227
		c0.126,0.169,0.25,0.338,0.375,0.508c0.221,0.301,0.44,0.604,0.66,0.909c0.863,1.203,1.708,2.428,2.558,3.646
		c1.549,2.218,3.126,4.404,4.897,6.364c0.031,0.034,0.063,0.069,0.095,0.103c0.432,0.474,0.874,0.936,1.332,1.38
		c0.635,0.616,1.298,1.196,1.994,1.742c0.575,0.452,1.173,0.876,1.798,1.271c0.02,0.013,0.041,0.024,0.061,0.036
		c0.62,0.388,1.261,0.75,1.939,1.074c0.402,0.191,0.811,0.369,1.229,0.538c0.135,0.055,0.273,0.105,0.41,0.157
		c0.288,0.11,0.58,0.217,0.876,0.318c0.162,0.054,0.326,0.108,0.491,0.159c0.289,0.091,0.581,0.178,0.877,0.26
		c0.166,0.046,0.333,0.092,0.501,0.136c0.342,0.088,0.693,0.169,1.047,0.248c0.127,0.028,0.255,0.06,0.384,0.086
		c0.479,0.1,0.973,0.191,1.481,0.274c0.156,0.025,0.318,0.047,0.475,0.071c0.371,0.056,0.745,0.11,1.129,0.159
		c0.209,0.027,0.428,0.051,0.644,0.076c0.35,0.041,0.707,0.078,1.073,0.113c0.23,0.021,0.462,0.043,0.696,0.063
		c0.387,0.033,0.786,0.062,1.19,0.09c0.219,0.015,0.435,0.032,0.66,0.045c0.604,0.037,1.224,0.069,1.864,0.098
		c0.14,0.006,0.287,0.01,0.429,0.016c0.558,0.022,1.129,0.042,1.719,0.058c0.272,0.008,0.56,0.014,0.84,0.021
		c0.46,0.011,0.927,0.021,1.406,0.029c0.322,0.005,0.652,0.01,0.983,0.014c0.474,0.006,0.96,0.012,1.453,0.016
		c0.331,0.003,0.661,0.007,1.001,0.009c0.543,0.003,1.105,0.005,1.673,0.007c0.315,0.001,0.62,0.002,0.943,0.003
		c2.859,0.004,6.002-0.004,9.487-0.004c0.205,0,0.398,0.004,0.602,0.005c3.573,0.019,6.681,0.204,9.418,0.524
		c0.016,0.002,0.031,0.004,0.048,0.006c0.539,0.064,1.061,0.132,1.57,0.206c0.002,0,0.006,0,0.008,0.001
		c1.539,0.223,2.951,0.49,4.26,0.797c0.043,0.01,0.086,0.021,0.128,0.031c0.38,0.091,0.752,0.185,1.114,0.281
		c0.057,0.015,0.112,0.03,0.17,0.045c0.374,0.102,0.739,0.207,1.097,0.315c0.022,0.006,0.045,0.013,0.067,0.02
		c0.768,0.234,1.496,0.484,2.19,0.747c0.06,0.022,0.115,0.045,0.175,0.067c0.275,0.106,0.547,0.214,0.813,0.325
		c0.078,0.032,0.156,0.064,0.234,0.098c0.251,0.106,0.497,0.215,0.74,0.325c0.07,0.031,0.137,0.061,0.202,0.091
		c0.302,0.139,0.599,0.279,0.887,0.423c1.701,0.844,3.203,1.77,4.63,2.738c1.15,0.779,2.253,1.583,3.374,2.396
		c6.646,4.825,20.624,27.364,8.55,45c-0.69,0.766-1.334,0.375-1.223-0.681c0.35-7.324,4.33-27.693-11.104-39.263
		c-15.435-11.572-25.752-7.226-41.293-8.062c-0.921-0.05-1.822-0.109-2.711-0.176c-0.321-0.025-0.634-0.057-0.953-0.083
		c-0.554-0.048-1.107-0.096-1.649-0.151c-0.39-0.04-0.771-0.086-1.157-0.13c-0.45-0.052-0.898-0.103-1.34-0.162
		c-0.424-0.056-0.843-0.117-1.257-0.178c-0.384-0.057-0.764-0.114-1.141-0.176c-0.444-0.073-0.886-0.151-1.319-0.231
		c-0.325-0.06-0.649-0.122-0.97-0.186c-0.465-0.094-0.928-0.19-1.385-0.293c-0.263-0.059-0.523-0.123-0.785-0.185
		c-0.494-0.118-0.988-0.239-1.47-0.37c-0.183-0.048-0.36-0.103-0.541-0.153c-0.548-0.155-1.095-0.311-1.626-0.482
		c-0.011-0.003-0.019-0.006-0.027-0.009c-3.291-1.056-6.301-2.429-9.08-4.191c-0.025-0.016-0.051-0.031-0.076-0.047
		c-0.529-0.337-1.05-0.69-1.564-1.057c-0.038-0.028-0.076-0.056-0.115-0.083c-0.51-0.367-1.013-0.75-1.506-1.147
		c-0.03-0.024-0.061-0.048-0.091-0.073c-0.507-0.41-1.006-0.833-1.496-1.276c-0.557-0.502-1.104-1.025-1.641-1.571
		c-0.374-0.38-0.75-0.755-1.115-1.158c-3.586-3.945-5.895-9.053-9.547-12.936c-3.708-3.945-8.979-8.145-13.418-2.726
		c-0.003,0.021-1.721,1.073-1.634,0.063C109.006,60.271,113.759,56.049,118.712,57.729z"/>
	<path fill="#7D6F5B" d="M104.058,124.353c1.784-2.213,3.085-7.351,1.378-7.122c-1.708,0.228-60.215,52.663-60.471,53.125
		c-0.255,0.466,0.411,1.01,0.925,0.676C46.401,170.694,102.271,126.566,104.058,124.353z"/>
	<path fill="#7D6F5B" d="M127.339,124.008c-1.582,0.285-44.37,30.026-45.118,30.73c-0.747,0.704-0.97,1.826,0.25,1.39
		c1.222-0.433,43.367-26.042,45.543-27.323c0.464-0.273,0.796-0.741,1.025-1.307c0.05-1.009,0.098-1.402,0.124-2.415
		C129.177,124.553,128.921,123.723,127.339,124.008z"/>
	<path fill="#7D6F5B" d="M79.689,166.749c0.729-3.645-0.451-5.054-2.659-0.541c-2.208,4.513-1.778,12.224,5.153,19.392
		c1.61,1.594,5.122,1.993,2.783-0.966C78.625,177.193,78.959,170.392,79.689,166.749z"/>
	<path fill="#7D6F5B" d="M113.519,143.861c-4.157-1.918-6.105-0.439-4.287,1.545c8.904,8.947,6.004,24.204,5.51,26.112
		c-0.493,1.909,1.109,1.579,1.956,0.21C122.236,162.717,117.677,145.779,113.519,143.861z"/>
	<path fill="#7D6F5B" d="M152.884,146.058c4.03-0.336,8.578-2.69,12.125-9.732c3.549-7.044,0.542-14.579-0.977-16.376
		c-1.519-1.795-3.339-1.815-4.959-1.815c-6.938,0-17.851,3.497-17.851,14.73c0,3.585,1.385,5.858,4.387,9.202l-2.674,0.767
		C145.11,145.116,148.855,146.396,152.884,146.058z M159.874,120.052c0.84-0.147,1.724,0.298,2.069,0.799
		c2.871,4.268,3.213,12.174-0.127,16.05c-0.522,0.604-1.613-0.039-1.357-0.766c1.595-4.57,0.718-10.415-2.828-13.943
		C156.388,121.176,159.06,120.195,159.874,120.052z M145.354,131.667c0.255-4.062,3.304-8.545,7.099-8.251
		c3.794,0.294,5.896,6.828,5.624,10.538c-0.271,3.708-3.195,8.131-6.763,7.738C147.748,141.3,145.1,135.728,145.354,131.667z"/>
	<path fill="#7D6F5B" d="M175.738,137.775c-2.333,1.936-22.224,19.868-33.417,10.268l-3.15,1.218
		c4.94,4.06,11.825,6.77,21.122,2.249c0.818,0.908,0.835,3.735,1.042,5.748c3.897-7.168,10.212-13.254,16.604-18.256
		c-0.015-0.016-0.027-0.025-0.042-0.037L175.738,137.775z"/>
	<path fill="#7D6F5B" d="M42.375,185.44c3.443-0.376,6.839-1.069,10.059-2.227c0.278-1.31,0.077-3.165-0.366-3.86
		C49.484,180.137,44.968,182.992,42.375,185.44z"/>
</g>
</svg>
